<svg xmlns="http://www.w3.org/2000/svg" viewBox="0 0 320 380" width="320" height="380">
  <rect width="320" height="380" rx="12" fill="#fff" stroke="#E3E8EE"></rect>
  <text x="20" y="34" font-family="Inter, sans-serif" font-size="13" font-weight="700" fill="#0A2540">ROASTERY</text>
  <text x="20" y="64" font-family="Inter, sans-serif" font-size="11" fill="#425466">Email</text>
  <rect x="20" y="72" width="280" height="32" rx="6" fill="#fff" stroke="#E3E8EE"></rect>
  <text x="30" y="92" font-family="Inter, sans-serif" font-size="12" fill="#0A2540">jane.diaz@example.com</text>
  <rect x="20" y="118" width="135" height="34" rx="6" fill="#0A2540"></rect>
  <text x="62" y="139" font-family="Inter, sans-serif" font-size="12" font-weight="600" fill="#fff">link · Pay</text>
  <rect x="165" y="118" width="135" height="34" rx="6" fill="#000"></rect>
  <text x="200" y="139" font-family="Inter, sans-serif" font-size="12" font-weight="600" fill="#fff">  Pay</text>
  <text x="20" y="178" font-family="Inter, sans-serif" font-size="11" fill="#425466">Payment method</text>
  <g font-family="Inter, sans-serif" font-size="12" fill="#0A2540">
    <rect x="20" y="188" width="280" height="36" rx="6" fill="#fff" stroke="#635BFF"></rect>
    <circle cx="36" cy="206" r="6" fill="#635BFF"></circle>
    <text x="56" y="211">Card</text>
    <rect x="20" y="230" width="280" height="36" rx="6" fill="#fff" stroke="#E3E8EE"></rect>
    <circle cx="36" cy="248" r="6" fill="#fff" stroke="#C4CCD8"></circle>
    <text x="56" y="253">Pay over time with installments</text>
    <rect x="20" y="272" width="280" height="36" rx="6" fill="#fff" stroke="#E3E8EE"></rect>
    <circle cx="36" cy="290" r="6" fill="#fff" stroke="#C4CCD8"></circle>
    <text x="56" y="295">Cash App</text>
  </g>
  <rect x="20" y="320" width="280" height="40" rx="8" fill="#635BFF"></rect>
  <text x="138" y="345" font-family="Inter, sans-serif" font-size="14" font-weight="600" fill="#fff">Continue</text>
</svg>